# xmcd
#
# Track frame offsets:
#	150
#	19094
#	32840
#	47283
#	57876
#	75929
#	90411
#	109167
#	134350
#	153207
#	173854
#	199070
#
# Disc length: 2807 seconds
#
# Revision: 1
# Processed by: cddbd v1.4PL0 Copyright (c) Steve Scherf et al.
# Submitted via: audiograbber 1.81.03
#
DISCID=870af50c
DTITLE=Teddy Morgan - Bootleg Live. Lo-Fi. Solo
DYEAR=2001
DGENRE=Blues/Country
TTITLE0=World For The Knowing
TTITLE1=Moon So High
TTITLE2=Western Star
TTITLE3=Never Again
TTITLE4=Way Out West
TTITLE5=Girl Of My Dreams
TTITLE6=Louisiana Rain
TTITLE7=Along The Way
TTITLE8=Just Like Tom Thumb's Blues
TTITLE9=Western Star
TTITLE10=Bullet From A gun
TTITLE11=1000 Miles Away
EXTD=
EXTT0=
EXTT1=
EXTT2=
EXTT3=
EXTT4=
EXTT5=
EXTT6=
EXTT7=
EXTT8=
EXTT9=
EXTT10=
EXTT11=
PLAYORDER=
